<?xml version="1.0" standalone="no"?><!DOCTYPE svg PUBLIC "-//W3C//DTD SVG 1.1//EN" "http://www.w3.org/Graphics/SVG/1.1/DTD/svg11.dtd"><svg t="1546223707104" class="icon" style="" viewBox="0 0 1024 1024" version="1.1" xmlns="http://www.w3.org/2000/svg" p-id="8867" xmlns:xlink="http://www.w3.org/1999/xlink" width="24" height="24"><defs><style type="text/css"></style></defs><path d="M742.316 483.64L640.127 585.83l-34.063-34.064c-6.273-6.271-16.438-6.271-22.711 0-6.271 6.271-6.271 16.439 0 22.71l45.419 45.419c6.271 6.271 16.439 6.271 22.709 0l113.546-113.546c6.271-6.271 6.271-16.439 0-22.71-6.272-6.271-16.438-6.271-22.711 0.001z m160.577 283.528L802.256 666.53c30.029-31.664 48.569-74.333 48.569-121.415 0-97.552-79.083-176.635-176.635-176.635-97.553 0-176.635 79.083-176.635 176.635S576.638 721.75 674.191 721.75c38.876 0 74.701-12.711 103.875-33.993l102.119 102.12c6.273 6.272 16.439 6.272 22.709 0 6.272-6.271 6.272-16.437-0.001-22.709z m-228.702-77.533c-79.817 0-144.519-64.703-144.519-144.519s64.702-144.519 144.519-144.519c79.816 0 144.519 64.703 144.519 144.519s-64.703 144.519-144.519 144.519z m-369.327 80.288c0 8.869 7.189 16.058 16.058 16.058H609.96c8.869 0 16.058-7.189 16.058-16.058s-7.189-16.058-16.058-16.058H320.922c-8.869 0-16.058 7.189-16.058 16.058z m16.058-144.519c-8.869 0-16.058 7.189-16.058 16.058s7.189 16.058 16.058 16.058h177.552c-6.516-10.164-12.281-20.849-16.982-32.115h-160.57z m0-96.346h145.331a208.213 208.213 0 0 1 4.998-32.115H320.922c-8.869 0-16.058 7.189-16.058 16.058s7.189 16.057 16.058 16.057z m208.75 369.327H256.691c-26.606 0-48.173-21.567-48.173-48.173V175.788c0-26.606 21.567-48.173 48.173-48.173h401.442v160.577H818.71v106.507c12.262 11.785 23.015 25.06 32.115 39.523v-146.03L658.133 95.5h-417.5c-35.473 0-64.231 28.758-64.231 64.231v706.538c0 35.473 28.758 64.231 64.231 64.231h289.038c8.869 0 16.058-7.189 16.058-16.058s-7.189-16.057-16.057-16.057z m160.576-722.597l80.288 80.288h-80.288v-80.288zM818.71 850.212c0 26.606-21.568 48.173-48.173 48.173h-48.173c-8.869 0-16.058 7.189-16.058 16.058s7.189 16.058 16.058 16.058h64.231c35.473 0 64.231-28.758 64.231-64.231v-60.333l-32.115-32.115v76.39z m32.115-194.203c-1.746 2.774-3.839 5.282-5.705 7.966l5.705 5.705v-13.671zM563.297 368.481H320.922c-8.869 0-16.058 7.189-16.058 16.058s7.189 16.058 16.058 16.058h202.853c11.784-12.263 25.059-23.016 39.522-32.116z m94.836 529.904h-32.115c-8.869 0-16.058 7.189-16.058 16.058s7.189 16.058 16.058 16.058h32.115c8.869 0 16.058-7.189 16.058-16.058s-7.189-16.058-16.058-16.058z m-32.115-642.308c0-8.869-7.189-16.058-16.058-16.058H320.922c-8.869 0-16.058 7.189-16.058 16.058s7.189 16.058 16.058 16.058H609.96c8.869 0 16.058-7.189 16.058-16.058z" p-id="8868" fill="#2c2c2c"></path></svg>