<?xml version="1.0" standalone="no"?><!DOCTYPE svg PUBLIC "-//W3C//DTD SVG 1.1//EN" "http://www.w3.org/Graphics/SVG/1.1/DTD/svg11.dtd"><svg t="1546223939061" class="icon" style="" viewBox="0 0 1024 1024" version="1.1" xmlns="http://www.w3.org/2000/svg" p-id="10001" xmlns:xlink="http://www.w3.org/1999/xlink" width="24" height="24"><defs><style type="text/css"></style></defs><path d="M583 808.2c-5.7-76.4-39.1-147.8-95.4-203.1C447.7 566 399.1 537.7 346 522c47.2-30.8 78.3-82.7 78.3-141.5 0-94.3-80-171-178.2-171-98.3 0-178.2 76.7-178.2 171s80 171 178.2 171c6.8 0 13.5-0.4 20.1-1.1 2.4 1.2 5.1 1.9 7.9 2.2 140.6 13 253.3 123.8 263.6 259.1 0.9 11.4 10.8 20.1 22.7 20.1 13.2-0.1 23.5-10.9 22.6-23.6zM113.3 380.5c0-70.2 59.5-127.3 132.7-127.3 73.2 0 132.7 57.1 132.7 127.3S319.2 507.8 246 507.8c-73.1 0-132.7-57.1-132.7-127.3z" p-id="10002" fill="#2c2c2c"></path><path d="M270.4 647H90.6c-12.6 0-22.7-9.8-22.7-21.8 0-12.1 10.2-21.8 22.7-21.8h179.7c12.6 0 22.7 9.8 22.7 21.8 0.1 12.1-10.1 21.8-22.6 21.8zM270.4 737.4H90.6c-12.6 0-22.7-9.8-22.7-21.8 0-12.1 10.2-21.8 22.7-21.8h179.7c12.6 0 22.7 9.8 22.7 21.8 0.1 12-10.1 21.8-22.6 21.8zM270.3 825.8H90.6c-12.6 0-22.7-9.8-22.7-21.8 0-12.1 10.2-21.8 22.7-21.8h179.7c12.6 0 22.7 9.8 22.7 21.8 0 12.1-10.2 21.8-22.7 21.8zM939.2 827.8c-12.1 0-22.1-9.1-22.9-20.7-2.3-32.9-10.3-64.8-23.6-95.1-15.6-35.4-38-67.2-66.5-94.6-28.5-27.3-61.6-48.8-98.6-63.8l-0.3-0.1c-13-5.2-22.2-16.3-24.8-29.5-2.6-13.2 1.9-26.8 11.9-36.2 29.9-28 46.4-65.4 46.4-105.4 0-74.7-58.3-136.5-133.5-146-11.4-1.4-20-10.8-20-21.9 0-13.3 12.2-23.6 25.9-21.9 97.8 12.2 173.5 92.7 173.5 189.7 0 41-13.3 80-38.1 112.4-8.2 10.7-4.6 25.9 7.6 32.2 30.2 15.7 57.8 35.4 82.4 59 32.7 31.4 58.4 67.9 76.3 108.6 15.4 35 24.5 71.7 27.2 109.5 1 13-9.6 23.8-22.9 23.8zM756 831.7c-12.1 0-22.1-9.1-22.9-20.7-2.3-32.9-10.3-64.8-23.6-95.1-15.6-35.4-38-67.2-66.5-94.6-28.5-27.3-61.6-48.8-98.6-63.8l-0.3-0.1c-13-5.2-22.2-16.3-24.8-29.5-2.6-13.2 1.9-26.8 11.9-36.2 29.9-28 46.4-65.4 46.4-105.4 0-74.7-58.3-136.5-133.5-146-11.4-1.4-20-10.8-20-21.9 0-13.3 12.2-23.6 25.9-21.9 97.8 12.2 173.5 92.7 173.5 189.7 0 41-13.3 80-38.1 112.4-8.2 10.7-4.6 25.9 7.6 32.2 30.2 15.7 57.8 35.4 82.4 59 32.7 31.4 58.4 67.9 76.3 108.6 15.4 35 24.5 71.7 27.2 109.5 1 13.1-9.6 23.8-22.9 23.8z" p-id="10003" fill="#2c2c2c"></path></svg>