<?xml version="1.0" encoding="UTF-8"?>
<svg width="100px" height="78px" viewBox="0 0 100 78" version="1.1" xmlns="http://www.w3.org/2000/svg" xmlns:xlink="http://www.w3.org/1999/xlink">
    <!-- Generator: Sketch 48.1 (47250) - http://www.bohemiancoding.com/sketch -->
    <title>icon-nothingHere</title>
    <desc>Created with Sketch.</desc>
    <defs></defs>
    <g id="我的-我的保单-copy" stroke="none" stroke-width="1" fill="none" fill-rule="evenodd" transform="translate(-138.000000, -117.000000)">
        <g id="订单空页面" transform="translate(138.000000, 117.000000)" fill="#E5E9ED" fill-rule="nonzero">
            <path d="M46,4 C66.4348154,4 83,20.5646154 83,41 C83,61.4353846 66.4353846,78 46,78 C25.5646154,78 9,61.4353846 9,41 C9,20.5646154 25.5646154,4 46,4 Z M1,4.5 C1,2.56700338 2.56700338,1 4.5,1 C6.43299662,1 8,2.56700338 8,4.5 C8,6.43299662 6.43299662,8 4.5,8 C2.56700338,8 1,6.43299662 1,4.5 Z M23,2.5 C23,1.11928813 24.1192881,-8.45442189e-17 25.5,0 C26.8807119,8.45442189e-17 28,1.11928813 28,2.5 C28,3.88071187 26.8807119,5 25.5,5 C24.1192881,5 23,3.88071187 23,2.5 Z M0,29 C-5.32367215e-09,28.6427344 0.190598917,28.3126074 0.499999996,28.1339746 C0.809401075,27.9553418 1.19059893,27.9553418 1.5,28.1339746 C1.80940108,28.3126074 2.00000001,28.6427344 2,29 C2.00000001,29.3572656 1.80940108,29.6873926 1.5,29.8660254 C1.19059893,30.0446582 0.809401075,30.0446582 0.499999996,29.8660254 C0.190598917,29.6873926 -5.32367202e-09,29.3572656 2.22044605e-16,29 Z M5.00000003,47 C4.99990702,46.6427654 5.1904856,46.3126272 5.49992486,46.1339831 C5.80936413,45.955339 6.19063587,45.955339 6.50007514,46.1339831 C6.8095144,46.3126272 7.00009298,46.6427654 6.99999997,47 C7.00009298,47.3572346 6.8095144,47.6873728 6.50007514,47.8660169 C6.19063587,48.044661 5.80936413,48.044661 5.49992486,47.8660169 C5.1904856,47.6873728 4.99990702,47.3572346 5.00000003,47 Z M80,64.5 C80,62.5670034 81.5670034,61 83.5,61 C85.4329966,61 87,62.5670034 87,64.5 C87,66.4329966 85.4329966,68 83.5,68 C81.5670034,68 80,66.4329966 80,64.5 Z M97,48.5 C96.9998739,47.9641437 97.2857447,47.468938 97.7498981,47.2009734 C98.2140515,46.9330089 98.7859485,46.9330089 99.2501019,47.2009734 C99.7142553,47.468938 100.000126,47.9641437 100,48.5 C100.000126,49.0358563 99.7142553,49.531062 99.2501019,49.7990266 C98.7859485,50.0669911 98.2140515,50.0669911 97.7498981,49.7990266 C97.2857447,49.531062 96.9998739,49.0358563 97,48.5 Z M74,13 C74,12.4477153 74.4477153,12 75,12 C75.5522847,12 76,12.4477153 76,13 C76,13.5522847 75.5522847,14 75,14 C74.4477153,14 74,13.5522847 74,13 Z M90,16.5 C90,15.1192881 91.1192881,14 92.5,14 C93.8807119,14 95,15.1192881 95,16.5 C95,17.8807119 93.8807119,19 92.5,19 C91.1192881,19 90,17.8807119 90,16.5 Z M67.4275539,45.1109846 C67.4742308,44.9248461 67.4742308,44.8314923 67.3575385,44.7125231 L57.6350769,25.2903692 C57.4483693,24.8941846 57.1478154,24.7074769 56.7493539,24.7074769 L35.3684769,24.7074769 C34.9722924,24.707477 34.6928,24.8919077 34.4827539,25.2903692 L24.7602923,44.7125231 C24.6669385,44.8081539 24.6669385,44.9015077 24.6669385,45.1109846 L24.6669385,58.7042154 C24.6669385,59.2848308 25.0631231,59.6832923 25.6460154,59.6832923 L66.448477,59.6832923 C67.0290924,59.6832923 67.4275539,59.2871077 67.4275539,58.7042154 L67.4275539,45.1109846 Z M30.1511663,43.9943767 L27,43.9943767 L35.2301185,27.1996251 L35.2301185,32.7900656 L30.1511663,43.9943767 Z M55.0298223,33.077671 L36.3587745,33.077671 L36.3587745,26 L54.7473713,26 L55.0298223,33.077671 Z M31.6558497,43.9943767 L36.1239727,34.325328 L55.5,34.325328 L60.3906515,43.9943767 L52.8190114,43.9943767 C52.2311458,43.9943767 51.8315809,44.4044048 51.8315809,45.0018744 C51.8315809,48.3131444 49.1747039,51 45.9529248,51 C42.7311457,51 40.0742688,48.2891284 40.0742688,45.0018744 C40.0742688,44.4020619 39.6724075,43.9943768 39.0868383,43.9943767 L31.6558497,43.9943767 Z M56.182016,32.4298266 L55.9231025,26 L56.182016,26 L65,43.9943767 L62.0135968,43.9943767 L56.182016,32.4298266 Z M53.2016999,46 L65,46 L65,58 L26,58 L26,46 L37.7983001,46 C38.2898007,49.9117187 41.6142878,53.0078125 45.5,53.0078125 C49.3857123,53.0078125 52.7101994,49.9117187 53.2016999,46 Z" id="icon-nothingHere"></path>
        </g>
    </g>
</svg>