<svg xmlns="http://www.w3.org/2000/svg" width="27.398" height="27.397" viewBox="0 0 109.591 109.59">
  <defs>
    <style>
      .cls-1 {
        fill: #fff;
        fill-rule: evenodd;
      }
    </style>
  </defs>
  <path id="icon-tools" class="cls-1" d="M1057.54,1788.97l14.14,14.14a6,6,0,0,1,0,8.48l-18.39,18.39-18.38-18.39a5.981,5.981,0,0,1,0-8.48l14.14-14.14A5.993,5.993,0,0,1,1057.54,1788.97Zm35.35,35.35,14.14,14.14a5.993,5.993,0,0,1,0,8.49l-14.14,14.14a5.981,5.981,0,0,1-8.48,0l-18.39-18.38,18.39-18.39A6,6,0,0,1,1092.89,1824.32Zm-69.3-1.41,18.39,18.38-18.39,18.39a6,6,0,0,1-8.48,0l-14.14-14.14a6,6,0,0,1,0-8.49l14.14-14.14A5.981,5.981,0,0,1,1023.59,1822.91Zm31.12,31.11,18.38,18.39a5.981,5.981,0,0,1,0,8.48l-14.14,14.14a5.993,5.993,0,0,1-8.49,0l-14.14-14.14a6,6,0,0,1,0-8.48Z" transform="translate(-999.219 -1787.22)"/>
</svg>
